<svg width="96" height="96" viewBox="0 0 96 96" fill="none" xmlns="http://www.w3.org/2000/svg">
<g filter="url(#filter0_d_319_112)">
<path d="M46 84H32C29.8783 84 27.8434 83.1571 26.3431 81.6569C24.8429 80.1566 24 78.1217 24 76V20C24 17.8783 24.8429 15.8434 26.3431 14.3431C27.8434 12.8429 29.8783 12 32 12H64C66.1217 12 68.1566 12.8429 69.6569 14.3431C71.1571 15.8434 72 17.8783 72 20V52M80 84L88 76L80 68M68 68L60 76L68 84M44 16H52M48 68V68.04" stroke="black" stroke-width="5" stroke-linecap="round" stroke-linejoin="round" shape-rendering="crispEdges"/>
</g>
<defs>
<filter id="filter0_d_319_112" x="17.5" y="9.5" width="77" height="85" filterUnits="userSpaceOnUse" color-interpolation-filters="sRGB">
<feFlood flood-opacity="0" result="BackgroundImageFix"/>
<feColorMatrix in="SourceAlpha" type="matrix" values="0 0 0 0 0 0 0 0 0 0 0 0 0 0 0 0 0 0 127 0" result="hardAlpha"/>
<feOffset dy="4"/>
<feGaussianBlur stdDeviation="2"/>
<feComposite in2="hardAlpha" operator="out"/>
<feColorMatrix type="matrix" values="0 0 0 0 0 0 0 0 0 0 0 0 0 0 0 0 0 0 0.25 0"/>
<feBlend mode="normal" in2="BackgroundImageFix" result="effect1_dropShadow_319_112"/>
<feBlend mode="normal" in="SourceGraphic" in2="effect1_dropShadow_319_112" result="shape"/>
</filter>
</defs>
</svg>
