<svg width="24" height="24" viewBox="0 0 24 24" fill="none" xmlns="http://www.w3.org/2000/svg">
<path d="M19.5 2.625H17.625V2.25C17.625 1.95163 17.5065 1.66548 17.2955 1.4545C17.0845 1.24353 16.7984 1.125 16.5 1.125C16.2016 1.125 15.9155 1.24353 15.7045 1.4545C15.4935 1.66548 15.375 1.95163 15.375 2.25V2.625H8.625V2.25C8.625 1.95163 8.50647 1.66548 8.2955 1.4545C8.08452 1.24353 7.79837 1.125 7.5 1.125C7.20163 1.125 6.91548 1.24353 6.7045 1.4545C6.49353 1.66548 6.375 1.95163 6.375 2.25V2.625H4.5C4.00272 2.625 3.52581 2.82254 3.17417 3.17417C2.82254 3.52581 2.625 4.00272 2.625 4.5V19.5C2.625 19.9973 2.82254 20.4742 3.17417 20.8258C3.52581 21.1775 4.00272 21.375 4.5 21.375H19.5C19.9973 21.375 20.4742 21.1775 20.8258 20.8258C21.1775 20.4742 21.375 19.9973 21.375 19.5V4.5C21.375 4.00272 21.1775 3.52581 20.8258 3.17417C20.4742 2.82254 19.9973 2.625 19.5 2.625ZM6.375 4.875C6.375 5.17337 6.49353 5.45952 6.7045 5.6705C6.91548 5.88147 7.20163 6 7.5 6C7.79837 6 8.08452 5.88147 8.2955 5.6705C8.50647 5.45952 8.625 5.17337 8.625 4.875H15.375C15.375 5.17337 15.4935 5.45952 15.7045 5.6705C15.9155 5.88147 16.2016 6 16.5 6C16.7984 6 17.0845 5.88147 17.2955 5.6705C17.5065 5.45952 17.625 5.17337 17.625 4.875H19.125V7.125H4.875V4.875H6.375ZM4.875 19.125V9.375H19.125V19.125H4.875ZM10.5 11.625V16.875C10.5 17.1734 10.3815 17.4595 10.1705 17.6705C9.95952 17.8815 9.67337 18 9.375 18C9.07663 18 8.79048 17.8815 8.5795 17.6705C8.36853 17.4595 8.25 17.1734 8.25 16.875V13.4363C7.98231 13.5241 7.69141 13.5083 7.4348 13.392C7.17819 13.2757 6.97456 13.0674 6.86416 12.8082C6.75377 12.549 6.74464 12.2578 6.8386 11.9922C6.93255 11.7266 7.12274 11.5059 7.37156 11.3737L8.87156 10.6237C9.04272 10.5381 9.23289 10.4975 9.4241 10.5059C9.6153 10.5142 9.80122 10.5712 9.96425 10.6715C10.1273 10.7717 10.2621 10.9119 10.3558 11.0787C10.4495 11.2456 10.4992 11.4336 10.5 11.625ZM16.2647 14.8013L15.3656 15.75H15.75C16.0484 15.75 16.3345 15.8685 16.5455 16.0795C16.7565 16.2905 16.875 16.5766 16.875 16.875C16.875 17.1734 16.7565 17.4595 16.5455 17.6705C16.3345 17.8815 16.0484 18 15.75 18H12.75C12.5302 17.9999 12.3151 17.9354 12.1315 17.8145C11.9479 17.6936 11.8038 17.5215 11.7169 17.3195C11.6301 17.1176 11.6043 16.8946 11.6428 16.6781C11.6812 16.4617 11.7823 16.2612 11.9334 16.1016L14.5734 13.3125C14.6068 13.2556 14.6246 13.1909 14.625 13.125C14.6252 13.0423 14.5981 12.9618 14.5478 12.8961C14.4975 12.8304 14.4269 12.7832 14.347 12.7618C14.2671 12.7404 14.1823 12.746 14.1059 12.7778C14.0296 12.8096 13.9658 12.8657 13.9247 12.9375C13.7726 13.1901 13.5275 13.3729 13.242 13.4465C12.9566 13.5202 12.6536 13.4789 12.3983 13.3315C12.143 13.184 11.9558 12.9423 11.8769 12.6582C11.798 12.3741 11.8338 12.0704 11.9766 11.8125C12.2655 11.312 12.7114 10.9208 13.2453 10.6997C13.7792 10.4785 14.3712 10.4397 14.9294 10.5892C15.4876 10.7388 15.9808 11.0684 16.3326 11.5269C16.6844 11.9854 16.875 12.5471 16.875 13.125C16.8767 13.6956 16.6909 14.2509 16.3463 14.7056C16.3211 14.7392 16.2939 14.7711 16.2647 14.8013Z" fill="#008738"/>
</svg>
