<svg width="240" height="241" viewBox="0 0 240 241" fill="none" xmlns="http://www.w3.org/2000/svg">
<g clip-path="url(#clip0_262_295)">
<path d="M150.863 41.7232L79.6795 96.1698L165.406 130.154L150.863 41.7232ZM139.855 69.4914L145.838 105.864L110.576 91.8848L139.855 69.4914ZM59.5493 162.589C54.3389 160.523 50.1625 156.472 47.9388 151.328C45.715 146.183 45.6262 140.365 47.6917 135.155C49.7572 129.945 53.8079 125.768 58.9527 123.544C64.0976 121.321 69.915 121.232 75.1254 123.297C80.3357 125.363 84.5122 129.414 86.7359 134.558C88.9596 139.703 89.0485 145.521 86.983 150.731C84.9175 155.941 80.8667 160.118 75.7219 162.342C70.5771 164.565 64.7596 164.654 59.5493 162.589ZM53.8852 176.876C62.8849 180.444 72.9333 180.291 81.8198 176.45C90.7063 172.609 97.703 165.395 101.271 156.395C104.838 147.395 104.685 137.347 100.844 128.461C97.0029 119.574 89.7891 112.577 80.7894 109.01C71.7897 105.442 61.7414 105.595 52.8549 109.436C43.9684 113.277 36.9717 120.491 33.4039 129.491C29.8362 138.491 29.9897 148.539 33.8307 157.426C37.6717 166.312 44.8855 173.309 53.8852 176.876ZM131.23 153.805L119.902 182.381L148.478 193.709L159.806 165.134L131.23 153.805ZM99.9505 191.005L122.607 133.854L179.758 156.51L157.101 213.661L99.9505 191.005Z" fill="#008738"/>
</g>
<defs>
<clipPath id="clip0_262_295">
<rect width="184.434" height="184.434" fill="white" transform="translate(67.9685 0.595032) rotate(21.6247)"/>
</clipPath>
</defs>
</svg>
