<svg width="336" height="220" viewBox="0 0 336 220" fill="none" xmlns="http://www.w3.org/2000/svg">
<path d="M246.329 53.5446C247.625 46.8885 256.681 45.7795 259.545 51.9261L266.863 67.6314C268.143 70.3803 271.048 71.9918 274.059 71.6232L291.256 69.5172C297.987 68.6929 301.84 76.9632 296.88 81.5863L284.204 93.3987C281.986 95.4662 281.351 98.7271 282.631 101.476L289.949 117.181C292.813 123.328 286.138 129.548 280.208 126.259L265.057 117.854C262.405 116.383 259.107 116.787 256.889 118.854L244.213 130.667C239.253 135.29 231.274 130.864 232.57 124.208L235.882 107.201C236.461 104.224 235.058 101.213 232.406 99.7418L217.255 91.337C211.325 88.0476 213.069 79.0919 219.8 78.2677L236.998 76.1617C240.008 75.793 242.438 73.5281 243.018 70.5514L246.329 53.5446Z" fill="#FFC61C"/>
<path d="M217.725 64.9658C210.354 64.3335 202.984 63.5756 195.605 63.0684C180.666 62.0418 164.574 67.0939 150.336 71.2665C134.187 75.999 118.765 82.1797 104.24 90.6693C97.3944 94.6707 90.2467 98.261 83.5586 102.52C77.9272 106.106 72.665 110.263 67.0763 113.926C46.2372 127.583 25.9812 144.491 14.7901 167.161C11.8104 173.197 8.49196 179.062 5.33942 185.009C3.90931 187.707 3.95137 190.197 2 192.642" stroke="#FFC61C" stroke-width="3" stroke-linecap="round"/>
<path d="M199.784 105.106C199.505 103.372 189.698 103.768 188.286 103.785C175.722 103.935 162.865 105.12 150.476 107.186C129.081 110.754 109.359 118.112 88.9407 125.063C75.2688 129.717 60.5741 136.194 48.8644 144.714C44.0019 148.251 37.7598 151.075 35.2737 156.837" stroke="#FFC61C" stroke-width="3" stroke-linecap="round"/>
<path d="M221.25 136.546C206.069 135.244 190.778 133.445 175.525 133.631C168.82 133.712 162.482 134.953 155.959 136.382C149.415 137.817 142.766 138.577 136.222 139.958C125.844 142.149 114.871 146.376 105.056 150.406C96.9658 153.728 88.506 156.012 80.4275 159.368C74.5312 161.817 69.008 165.311 62.7995 166.917C55.3923 168.832 47.25 172.901 41.3202 177.893" stroke="#FFC61C" stroke-width="3" stroke-linecap="round"/>
</svg>
