<svg width="127" height="127" viewBox="0 0 127 127" fill="none" xmlns="http://www.w3.org/2000/svg">
<g clip-path="url(#clip0_262_296)">
<path d="M61.8678 57.949C55.1339 50.0237 38.6092 36.1852 24.9528 30.6488C11.8712 25.3422 7.90978 27.7137 5.39958 29.6431C2.49006 31.8634 3.06364 36.9949 3.74799 39.926C4.43433 42.8657 10.9785 63.6214 12.8511 66.9086C19.0449 77.7545 32.3107 78.8085 43.3916 74.8915C43.9511 74.671 44.5244 74.4518 45.1039 74.2402C44.5379 74.4712 43.9679 74.6851 43.3916 74.8915C27.3017 81.2538 13.9142 90.7815 38.375 107.862C64.895 124.987 66.5371 96.2864 67.4192 81.7264C74.6574 94.3905 85.3749 119.186 104.65 92.3883C118.544 69.79 103.18 63.5383 85.9362 64.9585C85.3297 65.0311 84.7216 65.0892 84.1124 65.1327C84.7257 65.0659 85.3369 65.0086 85.9362 64.9585C97.6069 63.568 109.034 56.7445 109.784 44.2773C110.009 40.505 106.683 18.9887 105.999 16.0576C105.313 13.1179 103.556 8.26718 99.9619 7.55629C96.8579 6.94219 92.2559 6.57001 82.8755 17.1164C73.0855 28.1403 64.3971 47.8655 61.8678 57.949Z" fill="#009AE7"/>
</g>
<defs>
<clipPath id="clip0_262_296">
<rect width="105" height="105" fill="white" transform="translate(-1.52588e-05 23.8727) rotate(-13.1417)"/>
</clipPath>
</defs>
</svg>
